<mxfile host="app.diagrams.net" modified="2024-03-04T15:13:11.143Z" agent="Mozilla/5.0 (Macintosh; Intel Mac OS X 10_15_7) AppleWebKit/537.36 (KHTML, like Gecko) Chrome/121.0.0.0 Safari/537.36" etag="bo0q5SSuFInE1zb17mi6" version="23.1.2" type="device" pages="2">
  <diagram name="Muebleria" id="wJ7QF7s8F_oYUU9hEWDZ">
    <mxGraphModel dx="1573" dy="1496" grid="1" gridSize="10" guides="1" tooltips="1" connect="1" arrows="1" fold="1" page="1" pageScale="1" pageWidth="827" pageHeight="1169" math="0" shadow="0">
      <root>
        <mxCell id="0" />
        <mxCell id="1" parent="0" />
        <mxCell id="-jycC6za24I7dfzX1nY1-1" value="Articulo" style="rounded=1;arcSize=10;whiteSpace=wrap;html=1;align=center;" vertex="1" parent="1">
          <mxGeometry x="-240" y="-100" width="100" height="40" as="geometry" />
        </mxCell>
        <mxCell id="-jycC6za24I7dfzX1nY1-2" value="Venta" style="rounded=1;arcSize=10;whiteSpace=wrap;html=1;align=center;" vertex="1" parent="1">
          <mxGeometry x="-20" y="82" width="100" height="40" as="geometry" />
        </mxCell>
        <mxCell id="-jycC6za24I7dfzX1nY1-3" value="Cliente" style="rounded=1;arcSize=10;whiteSpace=wrap;html=1;align=center;" vertex="1" parent="1">
          <mxGeometry x="220" y="82" width="100" height="40" as="geometry" />
        </mxCell>
        <mxCell id="-jycC6za24I7dfzX1nY1-8" value="&lt;font style=&quot;font-size: 8px;&quot;&gt;Realiza&lt;/font&gt;" style="shape=rhombus;perimeter=rhombusPerimeter;whiteSpace=wrap;html=1;align=center;" vertex="1" parent="1">
          <mxGeometry x="120" y="87" width="60" height="30" as="geometry" />
        </mxCell>
        <mxCell id="-jycC6za24I7dfzX1nY1-14" value="&lt;u&gt;DNI&lt;/u&gt;" style="ellipse;whiteSpace=wrap;html=1;align=center;" vertex="1" parent="1">
          <mxGeometry x="250" y="20" width="60" height="30" as="geometry" />
        </mxCell>
        <mxCell id="-jycC6za24I7dfzX1nY1-15" value="Nombre" style="ellipse;whiteSpace=wrap;html=1;align=center;" vertex="1" parent="1">
          <mxGeometry x="320" y="40" width="60" height="30" as="geometry" />
        </mxCell>
        <mxCell id="-jycC6za24I7dfzX1nY1-16" value="EsSocio" style="ellipse;whiteSpace=wrap;html=1;align=center;" vertex="1" parent="1">
          <mxGeometry x="340" y="92" width="60" height="30" as="geometry" />
        </mxCell>
        <mxCell id="-jycC6za24I7dfzX1nY1-17" value="TieneDesc" style="ellipse;whiteSpace=wrap;html=1;align=center;" vertex="1" parent="1">
          <mxGeometry x="300" y="140" width="60" height="30" as="geometry" />
        </mxCell>
        <mxCell id="-jycC6za24I7dfzX1nY1-20" value="" style="endArrow=none;html=1;rounded=0;entryX=0.75;entryY=0;entryDx=0;entryDy=0;exitX=0.5;exitY=1;exitDx=0;exitDy=0;" edge="1" parent="1" source="-jycC6za24I7dfzX1nY1-14" target="-jycC6za24I7dfzX1nY1-3">
          <mxGeometry relative="1" as="geometry">
            <mxPoint x="70" y="112" as="sourcePoint" />
            <mxPoint x="230" y="112" as="targetPoint" />
          </mxGeometry>
        </mxCell>
        <mxCell id="-jycC6za24I7dfzX1nY1-21" value="" style="endArrow=none;html=1;rounded=0;entryX=1;entryY=0;entryDx=0;entryDy=0;exitX=0;exitY=1;exitDx=0;exitDy=0;" edge="1" parent="1" source="-jycC6za24I7dfzX1nY1-15" target="-jycC6za24I7dfzX1nY1-3">
          <mxGeometry relative="1" as="geometry">
            <mxPoint x="290" y="60" as="sourcePoint" />
            <mxPoint x="305" y="92" as="targetPoint" />
          </mxGeometry>
        </mxCell>
        <mxCell id="-jycC6za24I7dfzX1nY1-22" value="" style="endArrow=none;html=1;rounded=0;entryX=1;entryY=0.5;entryDx=0;entryDy=0;exitX=0;exitY=0.5;exitDx=0;exitDy=0;" edge="1" parent="1" source="-jycC6za24I7dfzX1nY1-16" target="-jycC6za24I7dfzX1nY1-3">
          <mxGeometry relative="1" as="geometry">
            <mxPoint x="339" y="76" as="sourcePoint" />
            <mxPoint x="330" y="92" as="targetPoint" />
          </mxGeometry>
        </mxCell>
        <mxCell id="-jycC6za24I7dfzX1nY1-23" value="" style="endArrow=none;html=1;rounded=0;entryX=1;entryY=1;entryDx=0;entryDy=0;exitX=0.5;exitY=0;exitDx=0;exitDy=0;" edge="1" parent="1" source="-jycC6za24I7dfzX1nY1-17" target="-jycC6za24I7dfzX1nY1-3">
          <mxGeometry relative="1" as="geometry">
            <mxPoint x="350" y="117" as="sourcePoint" />
            <mxPoint x="330" y="112" as="targetPoint" />
          </mxGeometry>
        </mxCell>
        <mxCell id="-jycC6za24I7dfzX1nY1-25" value="&lt;u&gt;ID&lt;/u&gt;" style="ellipse;whiteSpace=wrap;html=1;align=center;" vertex="1" parent="1">
          <mxGeometry x="-310" y="-142" width="60" height="30" as="geometry" />
        </mxCell>
        <mxCell id="-jycC6za24I7dfzX1nY1-27" value="" style="endArrow=none;html=1;rounded=0;entryX=1;entryY=1;entryDx=0;entryDy=0;exitX=0;exitY=0.25;exitDx=0;exitDy=0;" edge="1" parent="1" source="-jycC6za24I7dfzX1nY1-1" target="-jycC6za24I7dfzX1nY1-25">
          <mxGeometry relative="1" as="geometry">
            <mxPoint x="-205" y="-90" as="sourcePoint" />
            <mxPoint x="-210" y="-122" as="targetPoint" />
          </mxGeometry>
        </mxCell>
        <mxCell id="-jycC6za24I7dfzX1nY1-28" value="Precio" style="ellipse;whiteSpace=wrap;html=1;align=center;" vertex="1" parent="1">
          <mxGeometry x="-330" y="-100" width="60" height="30" as="geometry" />
        </mxCell>
        <mxCell id="-jycC6za24I7dfzX1nY1-30" value="" style="endArrow=none;html=1;rounded=0;entryX=1;entryY=0.5;entryDx=0;entryDy=0;exitX=0;exitY=0.5;exitDx=0;exitDy=0;" edge="1" parent="1" source="-jycC6za24I7dfzX1nY1-1" target="-jycC6za24I7dfzX1nY1-28">
          <mxGeometry relative="1" as="geometry">
            <mxPoint x="-230" y="-90" as="sourcePoint" />
            <mxPoint x="-249" y="-106" as="targetPoint" />
          </mxGeometry>
        </mxCell>
        <mxCell id="-jycC6za24I7dfzX1nY1-31" value="Fecha" style="ellipse;whiteSpace=wrap;html=1;align=center;" vertex="1" parent="1">
          <mxGeometry x="-90" y="127" width="60" height="30" as="geometry" />
        </mxCell>
        <mxCell id="-jycC6za24I7dfzX1nY1-33" value="&lt;font style=&quot;font-size: 12px;&quot;&gt;Precio&lt;/font&gt;" style="ellipse;whiteSpace=wrap;html=1;align=center;" vertex="1" parent="1">
          <mxGeometry x="-30" y="145" width="60" height="30" as="geometry" />
        </mxCell>
        <mxCell id="-jycC6za24I7dfzX1nY1-34" value="&lt;u&gt;ID&lt;/u&gt;" style="ellipse;whiteSpace=wrap;html=1;align=center;" vertex="1" parent="1">
          <mxGeometry x="40" y="145" width="60" height="30" as="geometry" />
        </mxCell>
        <mxCell id="-jycC6za24I7dfzX1nY1-35" value="" style="endArrow=none;html=1;rounded=0;entryX=0.707;entryY=1.034;entryDx=0;entryDy=0;exitX=0.5;exitY=0;exitDx=0;exitDy=0;entryPerimeter=0;" edge="1" parent="1" source="-jycC6za24I7dfzX1nY1-34" target="-jycC6za24I7dfzX1nY1-2">
          <mxGeometry relative="1" as="geometry">
            <mxPoint x="20" y="45" as="sourcePoint" />
            <mxPoint x="20" y="95" as="targetPoint" />
          </mxGeometry>
        </mxCell>
        <mxCell id="-jycC6za24I7dfzX1nY1-36" value="" style="endArrow=none;html=1;rounded=0;entryX=0.44;entryY=0.017;entryDx=0;entryDy=0;exitX=0.5;exitY=1;exitDx=0;exitDy=0;entryPerimeter=0;" edge="1" parent="1" source="-jycC6za24I7dfzX1nY1-2" target="-jycC6za24I7dfzX1nY1-33">
          <mxGeometry relative="1" as="geometry">
            <mxPoint x="90" y="160" as="sourcePoint" />
            <mxPoint x="70" y="135" as="targetPoint" />
          </mxGeometry>
        </mxCell>
        <mxCell id="-jycC6za24I7dfzX1nY1-38" value="" style="endArrow=none;html=1;rounded=0;entryX=1;entryY=0;entryDx=0;entryDy=0;exitX=0.25;exitY=1;exitDx=0;exitDy=0;" edge="1" parent="1" source="-jycC6za24I7dfzX1nY1-2" target="-jycC6za24I7dfzX1nY1-31">
          <mxGeometry relative="1" as="geometry">
            <mxPoint x="-29" y="159" as="sourcePoint" />
            <mxPoint x="-5" y="135" as="targetPoint" />
          </mxGeometry>
        </mxCell>
        <mxCell id="-jycC6za24I7dfzX1nY1-41" value="Nombre" style="ellipse;whiteSpace=wrap;html=1;align=center;" vertex="1" parent="1">
          <mxGeometry x="-330" y="-60" width="60" height="30" as="geometry" />
        </mxCell>
        <mxCell id="-jycC6za24I7dfzX1nY1-42" value="" style="endArrow=none;html=1;rounded=0;entryX=1;entryY=0.5;entryDx=0;entryDy=0;exitX=0;exitY=0.75;exitDx=0;exitDy=0;" edge="1" parent="1" source="-jycC6za24I7dfzX1nY1-1" target="-jycC6za24I7dfzX1nY1-41">
          <mxGeometry relative="1" as="geometry">
            <mxPoint x="-230" y="-70" as="sourcePoint" />
            <mxPoint x="-260" y="-75" as="targetPoint" />
          </mxGeometry>
        </mxCell>
        <mxCell id="-jycC6za24I7dfzX1nY1-44" value="DetalleVenta" style="rounded=1;arcSize=10;whiteSpace=wrap;html=1;align=center;" vertex="1" parent="1">
          <mxGeometry x="-20" y="-100" width="100" height="40" as="geometry" />
        </mxCell>
        <mxCell id="-jycC6za24I7dfzX1nY1-45" value="&lt;font style=&quot;font-size: 10px;&quot;&gt;Descripcion&lt;/font&gt;" style="ellipse;whiteSpace=wrap;html=1;align=center;" vertex="1" parent="1">
          <mxGeometry x="-240" y="-150" width="60" height="30" as="geometry" />
        </mxCell>
        <mxCell id="-jycC6za24I7dfzX1nY1-46" value="" style="endArrow=none;html=1;rounded=0;entryX=0.5;entryY=1;entryDx=0;entryDy=0;exitX=0.25;exitY=0;exitDx=0;exitDy=0;" edge="1" parent="1" source="-jycC6za24I7dfzX1nY1-1" target="-jycC6za24I7dfzX1nY1-45">
          <mxGeometry relative="1" as="geometry">
            <mxPoint x="-230" y="-80" as="sourcePoint" />
            <mxPoint x="-249" y="-106" as="targetPoint" />
          </mxGeometry>
        </mxCell>
        <mxCell id="-jycC6za24I7dfzX1nY1-47" value="&lt;font style=&quot;font-size: 12px;&quot;&gt;&lt;u&gt;ID&lt;/u&gt;&lt;/font&gt;" style="ellipse;whiteSpace=wrap;html=1;align=center;" vertex="1" parent="1">
          <mxGeometry x="-10" y="-150" width="60" height="30" as="geometry" />
        </mxCell>
        <mxCell id="-jycC6za24I7dfzX1nY1-48" value="&lt;font style=&quot;font-size: 10px;&quot;&gt;Cantidad&lt;/font&gt;" style="ellipse;whiteSpace=wrap;html=1;align=center;" vertex="1" parent="1">
          <mxGeometry x="60" y="-150" width="60" height="30" as="geometry" />
        </mxCell>
        <mxCell id="-jycC6za24I7dfzX1nY1-49" value="" style="endArrow=none;html=1;rounded=0;entryX=0.5;entryY=1;entryDx=0;entryDy=0;exitX=0.5;exitY=0;exitDx=0;exitDy=0;" edge="1" parent="1" source="-jycC6za24I7dfzX1nY1-44" target="-jycC6za24I7dfzX1nY1-47">
          <mxGeometry relative="1" as="geometry">
            <mxPoint x="-205" y="-90" as="sourcePoint" />
            <mxPoint x="-200" y="-110" as="targetPoint" />
          </mxGeometry>
        </mxCell>
        <mxCell id="-jycC6za24I7dfzX1nY1-50" value="" style="endArrow=none;html=1;rounded=0;entryX=0;entryY=1;entryDx=0;entryDy=0;exitX=0.75;exitY=0;exitDx=0;exitDy=0;" edge="1" parent="1" source="-jycC6za24I7dfzX1nY1-44" target="-jycC6za24I7dfzX1nY1-48">
          <mxGeometry relative="1" as="geometry">
            <mxPoint x="40" y="-90" as="sourcePoint" />
            <mxPoint x="30" y="-110" as="targetPoint" />
          </mxGeometry>
        </mxCell>
        <mxCell id="-jycC6za24I7dfzX1nY1-51" value="&lt;font style=&quot;font-size: 10px;&quot;&gt;Stock&lt;/font&gt;" style="ellipse;whiteSpace=wrap;html=1;align=center;" vertex="1" parent="1">
          <mxGeometry x="-260" y="-40" width="60" height="30" as="geometry" />
        </mxCell>
        <mxCell id="-jycC6za24I7dfzX1nY1-52" value="" style="endArrow=none;html=1;rounded=0;entryX=0.5;entryY=0;entryDx=0;entryDy=0;exitX=0.25;exitY=1;exitDx=0;exitDy=0;" edge="1" parent="1" source="-jycC6za24I7dfzX1nY1-1" target="-jycC6za24I7dfzX1nY1-51">
          <mxGeometry relative="1" as="geometry">
            <mxPoint x="-230" y="-60" as="sourcePoint" />
            <mxPoint x="-260" y="-35" as="targetPoint" />
          </mxGeometry>
        </mxCell>
        <mxCell id="-jycC6za24I7dfzX1nY1-53" value="" style="endArrow=none;html=1;rounded=0;entryX=0.5;entryY=0;entryDx=0;entryDy=0;exitX=0.5;exitY=1;exitDx=0;exitDy=0;" edge="1" parent="1" source="-jycC6za24I7dfzX1nY1-44" target="-jycC6za24I7dfzX1nY1-2">
          <mxGeometry relative="1" as="geometry">
            <mxPoint x="-205" y="-50" as="sourcePoint" />
            <mxPoint x="-220" y="-30" as="targetPoint" />
          </mxGeometry>
        </mxCell>
        <mxCell id="-jycC6za24I7dfzX1nY1-54" value="" style="endArrow=none;html=1;rounded=0;entryX=0;entryY=0.5;entryDx=0;entryDy=0;exitX=1;exitY=0.5;exitDx=0;exitDy=0;" edge="1" parent="1" source="-jycC6za24I7dfzX1nY1-58" target="-jycC6za24I7dfzX1nY1-44">
          <mxGeometry relative="1" as="geometry">
            <mxPoint x="40" y="-50" as="sourcePoint" />
            <mxPoint x="40" y="87" as="targetPoint" />
          </mxGeometry>
        </mxCell>
        <mxCell id="-jycC6za24I7dfzX1nY1-55" value="" style="endArrow=none;html=1;rounded=0;entryX=0;entryY=0.5;entryDx=0;entryDy=0;exitX=1;exitY=0.5;exitDx=0;exitDy=0;" edge="1" parent="1" target="-jycC6za24I7dfzX1nY1-8">
          <mxGeometry relative="1" as="geometry">
            <mxPoint x="80" y="102" as="sourcePoint" />
            <mxPoint x="-10" y="-65" as="targetPoint" />
          </mxGeometry>
        </mxCell>
        <mxCell id="-jycC6za24I7dfzX1nY1-56" value="" style="endArrow=none;html=1;rounded=0;entryX=0;entryY=0.5;entryDx=0;entryDy=0;exitX=1;exitY=0.5;exitDx=0;exitDy=0;" edge="1" parent="1" source="-jycC6za24I7dfzX1nY1-8" target="-jycC6za24I7dfzX1nY1-3">
          <mxGeometry relative="1" as="geometry">
            <mxPoint x="194" y="112" as="sourcePoint" />
            <mxPoint x="144" y="117" as="targetPoint" />
          </mxGeometry>
        </mxCell>
        <mxCell id="-jycC6za24I7dfzX1nY1-57" value="&lt;font style=&quot;font-size: 8px;&quot;&gt;Pertenece a&lt;/font&gt;" style="shape=rhombus;perimeter=rhombusPerimeter;whiteSpace=wrap;html=1;align=center;" vertex="1" parent="1">
          <mxGeometry y="-10" width="60" height="37" as="geometry" />
        </mxCell>
        <mxCell id="-jycC6za24I7dfzX1nY1-59" value="" style="endArrow=none;html=1;rounded=0;entryX=0;entryY=0.5;entryDx=0;entryDy=0;exitX=1;exitY=0.5;exitDx=0;exitDy=0;" edge="1" parent="1" source="-jycC6za24I7dfzX1nY1-1" target="-jycC6za24I7dfzX1nY1-58">
          <mxGeometry relative="1" as="geometry">
            <mxPoint x="-140" y="-80" as="sourcePoint" />
            <mxPoint x="-20" y="-80" as="targetPoint" />
          </mxGeometry>
        </mxCell>
        <mxCell id="-jycC6za24I7dfzX1nY1-58" value="&lt;font style=&quot;font-size: 8px;&quot;&gt;Posee&lt;/font&gt;" style="shape=rhombus;perimeter=rhombusPerimeter;whiteSpace=wrap;html=1;align=center;" vertex="1" parent="1">
          <mxGeometry x="-110" y="-95" width="60" height="30" as="geometry" />
        </mxCell>
        <mxCell id="-jycC6za24I7dfzX1nY1-60" value="n" style="text;html=1;align=center;verticalAlign=middle;resizable=0;points=[];autosize=1;strokeColor=none;fillColor=none;" vertex="1" parent="1">
          <mxGeometry x="195" y="78" width="30" height="30" as="geometry" />
        </mxCell>
        <mxCell id="-jycC6za24I7dfzX1nY1-62" value="1" style="text;html=1;align=center;verticalAlign=middle;resizable=0;points=[];autosize=1;strokeColor=none;fillColor=none;" vertex="1" parent="1">
          <mxGeometry x="25" y="58" width="30" height="30" as="geometry" />
        </mxCell>
        <mxCell id="-jycC6za24I7dfzX1nY1-63" value="n" style="text;html=1;align=center;verticalAlign=middle;resizable=0;points=[];autosize=1;strokeColor=none;fillColor=none;" vertex="1" parent="1">
          <mxGeometry x="25" y="-62" width="30" height="30" as="geometry" />
        </mxCell>
        <mxCell id="-jycC6za24I7dfzX1nY1-64" value="1" style="text;html=1;align=center;verticalAlign=middle;resizable=0;points=[];autosize=1;strokeColor=none;fillColor=none;" vertex="1" parent="1">
          <mxGeometry x="-145" y="-102" width="30" height="30" as="geometry" />
        </mxCell>
        <mxCell id="-jycC6za24I7dfzX1nY1-65" value="n" style="text;html=1;align=center;verticalAlign=middle;resizable=0;points=[];autosize=1;strokeColor=none;fillColor=none;" vertex="1" parent="1">
          <mxGeometry x="-45" y="-102" width="30" height="30" as="geometry" />
        </mxCell>
        <mxCell id="-jycC6za24I7dfzX1nY1-66" value="1" style="text;html=1;align=center;verticalAlign=middle;resizable=0;points=[];autosize=1;strokeColor=none;fillColor=none;" vertex="1" parent="1">
          <mxGeometry x="75" y="80" width="30" height="30" as="geometry" />
        </mxCell>
      </root>
    </mxGraphModel>
  </diagram>
  <diagram id="6v_Q5E6_rwVUmFWHLVqw" name="Página-2">
    <mxGraphModel dx="1194" dy="523" grid="1" gridSize="10" guides="1" tooltips="1" connect="1" arrows="1" fold="1" page="1" pageScale="1" pageWidth="827" pageHeight="1169" math="0" shadow="0">
      <root>
        <mxCell id="0" />
        <mxCell id="1" parent="0" />
      </root>
    </mxGraphModel>
  </diagram>
</mxfile>
